<?xml version="1.0" standalone="no"?>
<!DOCTYPE svg PUBLIC "-//W3C//DTD SVG 20010904//EN"
 "http://www.w3.org/TR/2001/REC-SVG-20010904/DTD/svg10.dtd">
<svg version="1.0" xmlns="http://www.w3.org/2000/svg"
 width="316.000000pt" height="316.000000pt" viewBox="0 0 316.000000 316.000000"
 preserveAspectRatio="xMidYMid meet">

<g transform="translate(0.000000,316.000000) scale(0.100000,-0.100000)"
fill="#000000" stroke="none">
<path d="M1574 2726 c-45 -7 -113 -23 -153 -35 -79 -24 -800 -337 -870 -378
-66 -39 -153 -133 -189 -205 -68 -138 -67 -289 2 -435 49 -103 167 -221 276
-276 146 -73 330 -97 477 -62 78 18 720 299 751 328 93 86 64 236 -57 299 -41
22 -67 28 -114 28 -56 0 -84 -10 -381 -142 -298 -132 -325 -142 -382 -142 -50
-1 -68 4 -103 27 -55 36 -81 80 -81 137 0 57 28 103 77 128 141 72 758 332
811 342 95 19 251 9 340 -23 210 -74 361 -243 394 -440 32 -192 -75 -385 -267
-483 -44 -22 -275 -126 -513 -230 -292 -128 -431 -193 -427 -202 15 -40 313
-513 343 -544 109 -114 325 -74 363 66 16 59 3 101 -63 209 -33 54 -58 100
-56 101 1 2 125 56 273 121 149 65 293 129 320 143 185 93 335 253 412 439 66
161 71 372 13 545 -113 338 -418 593 -806 673 -108 22 -290 28 -390 11z"/>
</g>
</svg>
