<?xml version="1.0" encoding="UTF-8"?>
<svg version="1.1" xmlns="http://www.w3.org/2000/svg" width="2000" height="2000">
<path d="M0 0 C7.05742053 -0.02848661 14.11484115 -0.04932457 21.17230093 -0.06527253 C25.36849149 -0.07507538 29.56459863 -0.08822596 33.76074153 -0.11079178 C63.11409062 -0.2646569 92.00373497 0.85869857 120.98353702 6.05064537 C122.04653018 6.24078209 123.10952335 6.43091881 124.20472842 6.62681725 C151.59996236 11.71933369 179.01714533 20.63810912 203.98353702 33.05064537 C205.37882531 33.72365153 206.77465506 34.39553634 208.17103702 35.06627037 C236.15455661 48.64312625 261.02163011 66.04806285 283.98353702 87.05064537 C284.99851079 87.96152779 286.01416327 88.87165437 287.03041202 89.78111412 C292.07111467 94.31288459 296.95051065 98.86020096 301.30775577 104.07017662 C302.46093691 105.43302705 303.65411388 106.76270121 304.87806827 108.06236412 C340.39399042 145.81862273 363.56382464 195.99609241 374.98353702 246.05064537 C375.19204288 246.95411705 375.40054874 247.85758873 375.61537296 248.78843834 C393.43849255 327.91046587 377.938204 412.96680622 334.98451358 481.45250084 C326.01315237 495.41654998 316.00943758 508.64650723 304.98353702 521.05064537 C304.33062686 521.78968101 303.67771671 522.52871666 303.00502139 523.29014732 C291.29300105 536.44307464 278.97248205 549.30876933 264.98353702 560.05064537 C263.84895486 560.98181097 262.71767809 561.91701265 261.58900577 562.85533287 C241.95382421 579.08920606 204.23344194 608.05064537 177.98353702 608.05064537 C177.98353702 608.71064537 177.98353702 609.37064537 177.98353702 610.05064537 C178.63966983 610.14474693 179.29580264 610.2388485 179.97181827 610.33580162 C217.29954514 619.1956901 254.19609855 651.76220789 275.98353702 682.05064537 C276.43390323 682.67261803 276.88426944 683.29459068 277.34828311 683.935411 C308.92247245 727.85895996 325.16090228 780.11489541 342.80653507 830.68180992 C344.90605679 836.69109751 347.01593508 842.69675136 349.12416202 848.70298912 C358.46073063 875.31243785 367.73524552 901.94325221 376.96902591 928.5885482 C382.75299986 945.27829808 388.55810244 961.96060394 394.3920148 978.63296654 C396.05686573 983.39259234 397.71416784 988.1547361 399.36399966 992.91958763 C411.61080122 1028.26665387 425.01891283 1062.83531778 442.80775577 1095.82261803 C444.24323359 1098.54275311 445.60805663 1101.2996846 446.98353702 1104.05064537 C368.77353702 1104.05064537 290.56353702 1104.05064537 209.98353702 1104.05064537 C198.55389238 1069.76171145 198.55389238 1069.76171145 194.25059634 1055.85600426 C193.35989019 1052.97807608 192.46515916 1050.10142032 191.56971866 1047.22496178 C190.17273399 1042.73684967 188.77704371 1038.2483376 187.38197452 1033.75962975 C182.84509261 1019.1697117 178.28410399 1004.58729864 173.72668582 990.00378563 C172.92017092 987.42287379 172.11376742 984.84192717 171.30738956 982.26097252 C161.61502397 951.23991059 151.89032315 920.22909557 142.12887126 889.22970344 C139.48468265 880.83232059 136.85060017 872.43186854 134.22963077 864.02720787 C121.65417047 823.73606906 107.5277929 783.20595285 81.98353702 749.05064537 C81.53800479 748.45107017 81.09247257 747.85149498 80.63343936 747.23375084 C50.56829519 707.08558602 9.46415701 681.10518543 -39.82896298 671.30064537 C-40.81066464 671.10188805 -41.7923663 670.90313072 -42.8038165 670.69835045 C-84.36686679 662.92298389 -132.37136435 666.45935773 -172.01646298 666.05064537 C-172.01646298 810.59064537 -172.01646298 955.13064537 -172.01646298 1104.05064537 C-241.97646298 1104.05064537 -311.93646298 1104.05064537 -384.01646298 1104.05064537 C-384.01646298 740.39064537 -384.01646298 376.73064537 -384.01646298 2.05064537 C-321.74432742 0.89745767 -321.74432742 0.89745767 -298.09219736 0.85003676 C-294.39835841 0.84161696 -290.70453649 0.82807493 -287.01071042 0.81532433 C-279.85712674 0.79135346 -272.70353825 0.77163955 -265.54993749 0.75357158 C-257.10785118 0.73205238 -248.66578124 0.70576945 -240.22370893 0.67940011 C-225.07927766 0.63223508 -209.93483805 0.58889697 -194.79038876 0.54795982 C-180.31739874 0.50883211 -165.84441835 0.4673393 -151.37144345 0.42295982 C-150.48285437 0.42023555 -149.59426529 0.41751128 -148.67874926 0.41470445 C-146.8868042 0.40920856 -145.09485914 0.4037121 -143.30291408 0.39821508 C-142.41750509 0.39549903 -141.5320961 0.39278298 -140.61985654 0.38998463 C-139.73572591 0.38727126 -138.85159528 0.3845579 -137.94067281 0.38176231 C-123.85452353 0.33861148 -109.7683686 0.29735769 -95.68221277 0.25640666 C-90.69832348 0.24191259 -85.71443476 0.22724169 -80.73054641 0.21242513 C-63.66004294 0.16179834 -46.58955383 0.11672123 -29.51900119 0.08633136 C-19.67927348 0.06872097 -9.83966168 0.04029887 0 0 Z M-172.01646298 159.05064537 C-172.01646298 271.91064537 -172.01646298 384.77064537 -172.01646298 501.05064537 C-72.55888706 505.66301023 -72.55888706 505.66301023 25.60853702 497.30064537 C26.46205753 497.13290611 27.31557803 496.96516685 28.1949628 496.79234459 C59.17507811 490.39980374 88.02070432 476.65636624 111.98353702 456.05064537 C112.71185733 455.444786 113.44017764 454.83892662 114.19056827 454.21470787 C118.94904701 450.19320194 123.03950553 445.86766406 126.98353702 441.05064537 C127.39507022 440.55145592 127.80660342 440.05226646 128.23060733 439.53795006 C134.86871451 431.44491528 140.8483118 423.20106727 145.98353702 414.05064537 C146.31450382 413.46122154 146.64547061 412.87179771 146.98646671 412.26451256 C167.86166751 374.48938843 171.80413456 327.41679967 160.17103702 286.11314537 C146.98605817 241.84957876 117.62950997 204.10848743 76.92128116 181.91758873 C47.77124279 166.56007062 17.22446489 158.66973092 -15.69200009 158.82359459 C-17.43596801 158.82420889 -19.17993642 158.8239375 -20.92390412 158.82286407 C-25.5474647 158.82241697 -30.1709194 158.83391463 -34.79445523 158.84808495 C-39.15072805 158.85956909 -43.50697655 158.86001627 -47.86326474 158.86143639 C-60.56017789 158.87188478 -73.25707182 158.89980731 -85.95396298 158.92564537 C-114.35458798 158.96689537 -142.75521298 159.00814537 -172.01646298 159.05064537 Z " fill="#000000" transform="translate(797.0164629817009,283.94935462996364)"/>
<path d="M0 0 C66.66 0 133.32 0 202 0 C202.04026156 99.65851881 202.04026156 99.65851881 202.05130005 130.50357056 C202.05169472 131.60363185 202.05208938 132.70369314 202.05249601 133.83708963 C202.06575218 170.88637748 202.07625101 207.93566558 202.08468628 244.98495483 C202.08510045 246.7994183 202.08510045 246.7994183 202.08552299 248.6505376 C202.09150954 274.94268325 202.0970498 301.23482899 202.10213066 327.52697483 C202.10462522 340.42162907 202.10721834 353.31628329 202.10986328 366.2109375 C202.1101248 367.49407429 202.11038632 368.77721107 202.11065576 370.09923079 C202.11917037 411.64959824 202.13418694 453.19996022 202.15259444 494.75032436 C202.17148445 537.46766012 202.18377664 580.18499286 202.18782998 622.90233273 C202.18840624 628.94321344 202.18905752 634.98409413 202.18975449 641.02497482 C202.18995676 642.80827963 202.18995676 642.80827963 202.19016311 644.6276108 C202.19252166 663.72418223 202.20178456 682.82074429 202.21366407 701.9173119 C202.2254738 721.14059282 202.22992716 740.36386451 202.22700275 759.58714892 C202.22548775 770.99194177 202.22948173 782.3967007 202.24159509 793.80148739 C202.24915173 801.44189122 202.2492878 809.08227309 202.24366363 816.7226785 C202.24067381 821.06194269 202.24064907 825.40114319 202.24976636 829.74040027 C202.30022578 855.24514603 201.83236651 880.76048415 198.25 906.0625 C197.99730347 907.88817505 197.99730347 907.88817505 197.73950195 909.75073242 C189.23379223 968.66177051 169.05559842 1026.99160048 129 1072 C128.32952637 1072.76304443 128.32952637 1072.76304443 127.64550781 1073.54150391 C105.17279567 1099.06396857 76.90979141 1118.19096717 45 1130 C44.17322754 1130.30631348 43.34645508 1130.61262695 42.49462891 1130.92822266 C-2.25066713 1147.21547639 -50.19587707 1149.1591105 -97 1142 C-97.77617676 1141.92507324 -98.55235352 1141.85014648 -99.35205078 1141.77294922 C-101.47265625 1141.46484375 -101.47265625 1141.46484375 -105 1140 C-106.05233765 1138.35346985 -106.05233765 1138.35346985 -106.92333984 1136.2355957 C-107.42677666 1135.01351158 -107.42677666 1135.01351158 -107.94038391 1133.76673889 C-109.97098516 1128.46468327 -111.87974564 1123.1247804 -113.75390625 1117.765625 C-114.21120785 1116.46692095 -114.66887425 1115.16834531 -115.12687683 1113.86988831 C-116.10126164 1111.10557343 -117.07352985 1108.34052758 -118.04406738 1105.57485962 C-120.36897213 1098.95039384 -122.70505112 1092.32986546 -125.04047012 1085.70910072 C-125.56946144 1084.20928926 -126.09831771 1082.70943017 -126.62704086 1081.20952415 C-131.23969516 1068.12440219 -135.90523898 1055.05898494 -140.6020813 1042.0038147 C-147.22732918 1023.58504434 -153.81600294 1005.1533271 -160.33898926 986.6980896 C-161.18874478 984.29580615 -162.04019527 981.8941215 -162.89343262 979.49307251 C-164.07184458 976.17546469 -165.24381908 972.85565272 -166.4140625 969.53515625 C-166.76411346 968.55339417 -167.11416443 967.57163208 -167.474823 966.56011963 C-169.0567822 962.04944591 -170.43740247 957.77510873 -171 953 C-170.00484375 953.24234375 -169.0096875 953.4846875 -167.984375 953.734375 C-128.04110981 963.36147751 -85.20208637 970.8795946 -47.578125 949.30078125 C-41.66085721 945.66538772 -36.82338562 940.95162926 -32 936 C-31.26136719 935.25878906 -30.52273438 934.51757812 -29.76171875 933.75390625 C1.24543222 900.94051348 -0.84905453 852.06000349 -0.8427946 810.13586373 C-0.84104636 805.81000582 -0.83355065 801.48415696 -0.82681805 797.15830445 C-0.81582067 789.59413516 -0.80841279 782.02996915 -0.80341911 774.46579361 C-0.79597724 763.21831757 -0.78288607 751.97085295 -0.76867336 740.72338368 C-0.74491813 721.79906957 -0.72569083 702.87475343 -0.70907402 683.95043182 C-0.69261433 665.22202017 -0.6741238 646.49361232 -0.65294075 627.76520538 C-0.65162314 626.59927619 -0.65030554 625.43334699 -0.648948 624.23208661 C-0.64224561 618.31054793 -0.63550712 612.3890093 -0.62875474 606.46747068 C-0.58103406 564.56165081 -0.53783691 522.65582739 -0.49731445 480.75 C-0.45794523 440.04752341 -0.41651804 399.34504976 -0.37231445 358.64257812 C-0.37095192 357.38721357 -0.36958939 356.13184902 -0.36818558 354.83844311 C-0.35449981 342.23117273 -0.34077231 329.62390239 -0.32701423 317.01663209 C-0.2989902 291.3358157 -0.27124466 265.65499901 -0.2436676 239.97418213 C-0.2423994 238.79350625 -0.2411312 237.61283038 -0.23982458 236.39637645 C-0.20097967 200.21865888 -0.16331476 164.04094022 -0.1268158 127.86322021 C-0.1257794 126.83640634 -0.12474301 125.80959246 -0.12367522 124.75166302 C-0.08172138 83.16777607 -0.04101782 41.58388788 0 0 Z " fill="#000000" transform="translate(1285,656)"/>
<path d="M0 0 C68.64 0 137.28 0 208 0 C208 68.64 208 137.28 208 208 C139.36 208 70.72 208 0 208 C0 139.36 0 70.72 0 0 Z " fill="#000000" transform="translate(1282,311)"/>
</svg>
